<?xml version="1.0" encoding="UTF-8" standalone="no"?>
<!-- Generator: Adobe Illustrator 9.0, SVG Export Plug-In  -->
<svg
   xmlns:dc="http://purl.org/dc/elements/1.1/"
   xmlns:cc="http://creativecommons.org/ns#"
   xmlns:rdf="http://www.w3.org/1999/02/22-rdf-syntax-ns#"
   xmlns:svg="http://www.w3.org/2000/svg"
   xmlns="http://www.w3.org/2000/svg"
   xmlns:sodipodi="http://sodipodi.sourceforge.net/DTD/sodipodi-0.dtd"
   xmlns:inkscape="http://www.inkscape.org/namespaces/inkscape"
   width="48pt"
   height="48pt"
   viewBox="0 0 48 48"
   xml:space="preserve"
   id="svg2"
   sodipodi:version="0.32"
   inkscape:version="0.46"
   sodipodi:docname="important2.svg"
   inkscape:output_extension="org.inkscape.output.svg.inkscape"><metadata
   id="metadata23"><rdf:RDF><cc:Work
       rdf:about=""><dc:format>image/svg+xml</dc:format><dc:type
         rdf:resource="http://purl.org/dc/dcmitype/StillImage" /></cc:Work></rdf:RDF></metadata><defs
   id="defs21"><inkscape:perspective
   sodipodi:type="inkscape:persp3d"
   inkscape:vp_x="0 : 30 : 1"
   inkscape:vp_y="0 : 1000 : 0"
   inkscape:vp_z="60 : 30 : 1"
   inkscape:persp3d-origin="30 : 20 : 1"
   id="perspective25" />
		
	
			
			
			
			
		</defs><sodipodi:namedview
   inkscape:window-height="669"
   inkscape:window-width="640"
   inkscape:pageshadow="2"
   inkscape:pageopacity="0.0"
   guidetolerance="10.0"
   gridtolerance="10.0"
   objecttolerance="10.0"
   borderopacity="1.0"
   bordercolor="#666666"
   pagecolor="#ffffff"
   id="base"
   showgrid="false"
   inkscape:zoom="7.7"
   inkscape:cx="30"
   inkscape:cy="30"
   inkscape:window-x="50"
   inkscape:window-y="0"
   inkscape:current-layer="svg2" />
	<path
   style="fill-rule:nonzero;stroke:#ffffff;stroke-width:6.61119986;stroke-miterlimit:4"
   d="M 41.7,35.3 L 26.6,9.4 C 26,8.4 24.9,7.7 23.7,7.8 C 22.5,7.8 21.4,8.5 20.8,9.5 L 6.3,35.4 C 5.7,36.4 5.7,37.7 6.3,38.7 C 6.9,39.7 8,40.3 9.2,40.3 L 38.8,40.3 C 40,40.3 41.1,39.7 41.7,38.6 C 42.3,37.6 42.3,36.3 41.7,35.3 L 41.7,35.3 z"
   id="path7" /><path
   style="fill:#ffffff;fill-rule:nonzero;stroke:#000000;stroke-width:6.61119986;stroke-linecap:round;stroke-linejoin:round;stroke-miterlimit:4"
   d="M 23.7,11 L 9.2,37 L 38.8,37 L 23.7,11 z"
   id="path9" /><path
   style="fill:#ffff02;fill-rule:nonzero;stroke:none;stroke-miterlimit:4;fill-opacity:1"
   d="M 23.7,11.9 L 10.3,36.1 L 37.8,36.1 L 23.8,12 L 23.7,11.9 z"
   id="path11" /><g
   style="fill-rule:nonzero;stroke:#000000;stroke-miterlimit:4"
   id="g13">
				<path
   style="stroke:none"
   d="M 24.1,34 C 23,34 22.3,33.2 22.3,32.2 C 22.3,31.1 23,30.4 24.1,30.4 C 25.2,30.4 25.9,31.1 25.9,32.2 C 25.9,33.2 25.2,34 24.1,34 L 24.1,34 z M 22.9,29.3 L 22.5,20.2 L 25.7,20.2 L 25.3,29.3 L 23,29.3 L 22.9,29.3 z"
   id="path15" />
			</g>
	<g
   id="crop_x0020_marks"
   style="fill-rule:nonzero;clip-rule:nonzero;stroke:#000000;stroke-miterlimit:4;">
		<path
   style="fill:none;stroke:none;"
   d="M48,48H0V0h48v48z"
   id="path18" />
	</g>
</svg>